HIERARCHY
ROOT hip
{
OFFSET -0.10 86.01 0.06
CHANNELS 6 Xposition Yposition Zposition Zrotation Xrotation Yrotation
JOINT abdomen
{
OFFSET 0 7.23 0
CHANNELS 6 Xposition Yposition Zposition Zrotation Xrotation Yrotation
JOINT chest
{
OFFSET 0 16.54 -0
CHANNELS 6 Xposition Yposition Zposition Zrotation Xrotation Yrotation
JOINT neck
{
OFFSET 0 34.21 -0
CHANNELS 6 Xposition Yposition Zposition Zrotation Xrotation Yrotation
JOINT head
{
OFFSET 0 6.29 0
CHANNELS 6 Xposition Yposition Zposition Zrotation Xrotation Yrotation
End Site
{
OFFSET 0 0 0
}
}
}
JOINT lCollar
{
OFFSET 4.06 26.61 -1.12
CHANNELS 6 Xposition Yposition Zposition Zrotation Xrotation Yrotation
JOINT lShldr
{
OFFSET 14.17 0 0
CHANNELS 6 Xposition Yposition Zposition Zrotation Xrotation Yrotation
JOINT lForeArm
{
OFFSET 26.12 0 0
CHANNELS 6 Xposition Yposition Zposition Zrotation Xrotation Yrotation
JOINT lHand
{
OFFSET 27.71 0 0
CHANNELS 6 Xposition Yposition Zposition Zrotation Xrotation Yrotation
JOINT lThumb1
{
OFFSET 2.29 -0.46 1.83
CHANNELS 6 Xposition Yposition Zposition Zrotation Xrotation Yrotation
JOINT lThumb2
{
OFFSET 5.29 0 0
CHANNELS 6 Xposition Yposition Zposition Zrotation Xrotation Yrotation
JOINT lThumb3
{
OFFSET 3.01 0 0
CHANNELS 6 Xposition Yposition Zposition Zrotation Xrotation Yrotation
End Site
{
OFFSET 0 0 0
}
}
}
}
JOINT lIndex1
{
OFFSET 9.37 0.29 2.59
CHANNELS 6 Xposition Yposition Zposition Zrotation Xrotation Yrotation
JOINT lIndex2
{
OFFSET 4.34 0 0
CHANNELS 6 Xposition Yposition Zposition Zrotation Xrotation Yrotation
JOINT lIndex3
{
OFFSET 2.16 0 0
CHANNELS 6 Xposition Yposition Zposition Zrotation Xrotation Yrotation
End Site
{
OFFSET 0 0 0
}
}
}
}
JOINT lMid1
{
OFFSET 9.47 0.83 0.29
CHANNELS 6 Xposition Yposition Zposition Zrotation Xrotation Yrotation
JOINT lMid2
{
OFFSET 4.77 0 0
CHANNELS 6 Xposition Yposition Zposition Zrotation Xrotation Yrotation
JOINT lMid3
{
OFFSET 2.87 0 0
CHANNELS 6 Xposition Yposition Zposition Zrotation Xrotation Yrotation
End Site
{
OFFSET 0 0 0
}
}
}
}
JOINT lRing1
{
OFFSET 8.65 1.01 -1.70
CHANNELS 6 Xposition Yposition Zposition Zrotation Xrotation Yrotation
JOINT lRing2
{
OFFSET 4.54 0 0
CHANNELS 6 Xposition Yposition Zposition Zrotation Xrotation Yrotation
JOINT lRing3
{
OFFSET 2.50 0 0
CHANNELS 6 Xposition Yposition Zposition Zrotation Xrotation Yrotation
End Site
{
OFFSET 0 0 0
}
}
}
}
JOINT lPinky1
{
OFFSET 7.69 0.66 -3.90
CHANNELS 6 Xposition Yposition Zposition Zrotation Xrotation Yrotation
JOINT lPinky2
{
OFFSET 3.21 0 0
CHANNELS 6 Xposition Yposition Zposition Zrotation Xrotation Yrotation
JOINT lPinky3
{
OFFSET 1.92 0 0
CHANNELS 6 Xposition Yposition Zposition Zrotation Xrotation Yrotation
End Site
{
OFFSET 0 0 0
}
}
}
}
}
}
}
}
JOINT rCollar
{
OFFSET -4.06 26.61 -1.12
CHANNELS 6 Xposition Yposition Zposition Zrotation Xrotation Yrotation
JOINT rShldr
{
OFFSET -14.17 0 0
CHANNELS 6 Xposition Yposition Zposition Zrotation Xrotation Yrotation
JOINT rForeArm
{
OFFSET -26.12 0 0
CHANNELS 6 Xposition Yposition Zposition Zrotation Xrotation Yrotation
JOINT rHand
{
OFFSET -27.71 0 0
CHANNELS 6 Xposition Yposition Zposition Zrotation Xrotation Yrotation
JOINT rThumb1
{
OFFSET -2.29 -0.46 1.83
CHANNELS 6 Xposition Yposition Zposition Zrotation Xrotation Yrotation
JOINT rThumb2
{
OFFSET -5.29 0 0
CHANNELS 6 Xposition Yposition Zposition Zrotation Xrotation Yrotation
JOINT rThumb3
{
OFFSET -3.01 0 0
CHANNELS 6 Xposition Yposition Zposition Zrotation Xrotation Yrotation
End Site
{
OFFSET 0 0 0
}
}
}
}
JOINT rIndex1
{
OFFSET -9.37 0.29 2.59
CHANNELS 6 Xposition Yposition Zposition Zrotation Xrotation Yrotation
JOINT rIndex2
{
OFFSET -4.34 0 0
CHANNELS 6 Xposition Yposition Zposition Zrotation Xrotation Yrotation
JOINT rIndex3
{
OFFSET -2.16 0 0
CHANNELS 6 Xposition Yposition Zposition Zrotation Xrotation Yrotation
End Site
{
OFFSET 0 0 0
}
}
}
}
JOINT rMid1
{
OFFSET -9.47 0.83 0.29
CHANNELS 6 Xposition Yposition Zposition Zrotation Xrotation Yrotation
JOINT rMid2
{
OFFSET -4.77 0 0
CHANNELS 6 Xposition Yposition Zposition Zrotation Xrotation Yrotation
JOINT rMid3
{
OFFSET -2.87 0 0
CHANNELS 6 Xposition Yposition Zposition Zrotation Xrotation Yrotation
End Site
{
OFFSET 0 0 0
}
}
}
}
JOINT rRing1
{
OFFSET -8.65 1.01 -1.70
CHANNELS 6 Xposition Yposition Zposition Zrotation Xrotation Yrotation
JOINT rRing2
{
OFFSET -4.54 0 0
CHANNELS 6 Xposition Yposition Zposition Zrotation Xrotation Yrotation
JOINT rRing3
{
OFFSET -2.50 0 0
CHANNELS 6 Xposition Yposition Zposition Zrotation Xrotation Yrotation
End Site
{
OFFSET 0 0 0
}
}
}
}
JOINT rPinky1
{
OFFSET -7.69 0.66 -3.90
CHANNELS 6 Xposition Yposition Zposition Zrotation Xrotation Yrotation
JOINT rPinky2
{
OFFSET -3.21 0 0
CHANNELS 6 Xposition Yposition Zposition Zrotation Xrotation Yrotation
JOINT rPinky3
{
OFFSET -1.92 0 0
CHANNELS 6 Xposition Yposition Zposition Zrotation Xrotation Yrotation
End Site
{
OFFSET 0 0 0
}
}
}
}
}
}
}
}
}
}
JOINT lThigh
{
OFFSET 8.73 -0 0
CHANNELS 6 Xposition Yposition Zposition Zrotation Xrotation Yrotation
JOINT lShin
{
OFFSET 0 -46.66 0
CHANNELS 6 Xposition Yposition Zposition Zrotation Xrotation Yrotation
JOINT lFoot
{
OFFSET 0 -40.14 0
CHANNELS 6 Xposition Yposition Zposition Zrotation Xrotation Yrotation
JOINT lToes
{
OFFSET 0 -8.88 14.22
CHANNELS 6 Xposition Yposition Zposition Zrotation Xrotation Yrotation
End Site
{
OFFSET 0 0 0
}
}
}
}
}
JOINT rThigh
{
OFFSET -8.73 0 -0
CHANNELS 6 Xposition Yposition Zposition Zrotation Xrotation Yrotation
JOINT rShin
{
OFFSET 0 -46.66 0
CHANNELS 6 Xposition Yposition Zposition Zrotation Xrotation Yrotation
JOINT rFoot
{
OFFSET 0 -40.14 0
CHANNELS 6 Xposition Yposition Zposition Zrotation Xrotation Yrotation
JOINT rToes
{
OFFSET 0 -8.88 14.22
CHANNELS 6 Xposition Yposition Zposition Zrotation Xrotation Yrotation
End Site
{
OFFSET 0 0 0
}
}
}
}
}
}
MOTION
Frames: 7
Frame Time: 0.03
-0.35 86.00 -0.08 -2.55 0.34 -36.56 0 7.24 0 -0.72 -0.97 -0.97 0 16.54 -0 -1.08 3.61 -2.81 0 34.21 -0 -0.84 26.11 1.27 0 6.29 0 -9.17 -14.17 43.42 4.06 26.61 -1.12 -7.26 -5.16 4.42 14.17 0 0 -64.20 37.51 2.47 26.12 0 0 -0 0 -85.21 27.71 0 0 -23.81 -2.90 -11.61 2.29 -0.46 1.83 60.55 59.81 -94.87 5.29 0 0 -31.62 1.78 13.52 3.01 0 0 -9.29 4.86 11.98 9.37 0.29 2.59 -14.84 3.00 -1.79 4.34 0 0 -17.05 2.95 12.80 2.16 0 0 -39.58 -1.85 3.38 9.47 0.83 0.29 -17.74 -8.38 1.16 4.77 0 0 -25.26 1.27 15.79 2.87 0 0 -42.85 -5.38 11.90 8.65 1.01 -1.70 -25.51 -10.38 2.28 4.54 0 0 -23.47 0.26 7.66 2.50 0 0 -24.24 -1.28 4.61 7.69 0.66 -3.90 -12.73 -8.19 -2.12 3.21 0 0 -51.14 -7.95 12.29 1.92 0 0 -72.20 -16.64 20.97 -4.06 26.61 -1.12 7.93 -5.02 -3.00 -14.17 0 0 52.83 2.75 44.89 -26.12 0 0 0 0 109.85 -27.71 0 0 -25.78 9.07 -6.76 -2.29 -0.46 1.83 -58.05 34.86 97.98 -5.29 0 0 3.13 -12.29 -11.73 -3.01 0 0 49.17 21.55 -13.56 -9.37 0.29 2.59 44.26 -16.28 -19.27 -4.34 0 0 39.43 1.04 -17.18 -2.16 0 0 32.42 -1.98 -6.38 -9.47 0.83 0.29 71.81 -24.27 -17.64 -4.77 0 0 87.27 -15.40 -16.24 -2.87 0 0 44.78 -4.46 -12.79 -8.65 1.01 -1.70 72.40 -20.74 -15.78 -4.54 0 0 80.31 -7.53 -8.92 -2.50 0 0 47.93 -2.94 -7.77 -7.69 0.66 -3.90 85.69 -30.71 -4.49 -3.21 0 0 73.39 -11.48 -8.29 -1.92 0 0 39.93 -4.93 -15.33 8.73 -0 0 33.35 -23.77 44.17 0 -46.66 0 0 50.90 0 0 -40.14 0 -6.24 -11.33 11.20 0 -8.88 14.22 0 0 0 -8.73 0 -0 -17.21 -15.07 -15.94 0 -46.66 0 0 46.28 0 0 -40.14 0 14.22 -26.62 0.87 0 -8.88 14.22 0 0 0 
-0.36 86.08 -0.06 -2.49 0.37 -36.57 0 7.24 0 -0.73 -1.00 -0.99 0 16.54 -0 -1.01 3.39 -2.83 0 34.21 -0 -0.84 26.15 1.27 0 6.29 0 -9.18 -14.06 43.41 4.06 26.61 -1.12 -7.10 -5.15 4.47 14.17 0 0 -64.38 37.63 2.48 26.12 0 0 -0 0 -85.19 27.71 0 0 -23.84 -3.07 -11.64 2.29 -0.46 1.83 60.55 59.81 -94.87 5.29 0 0 -31.62 1.78 13.52 3.01 0 0 -9.29 4.86 11.98 9.37 0.29 2.59 -14.84 3.00 -1.79 4.34 0 0 -17.05 2.95 12.80 2.16 0 0 -39.58 -1.85 3.38 9.47 0.83 0.29 -17.74 -8.47 1.14 4.77 0 0 -25.26 1.27 15.79 2.87 0 0 -42.85 -5.38 11.90 8.65 1.01 -1.70 -25.51 -10.38 2.28 4.54 0 0 -23.47 0.26 7.66 2.50 0 0 -24.24 -1.28 4.61 7.69 0.66 -3.90 -12.73 -8.19 -2.12 3.21 0 0 -51.14 -7.95 12.29 1.92 0 0 -72.20 -16.64 20.97 -4.06 26.61 -1.12 7.62 -5.01 -3.08 -14.17 0 0 52.94 2.97 44.84 -26.12 0 0 0 0 109.92 -27.71 0 0 -25.81 8.83 -6.91 -2.29 -0.46 1.83 -58.05 34.86 97.98 -5.29 0 0 3.13 -12.29 -11.73 -3.01 0 0 49.17 21.55 -13.56 -9.37 0.29 2.59 44.26 -16.28 -19.27 -4.34 0 0 39.43 1.04 -17.18 -2.16 0 0 32.42 -1.98 -6.38 -9.47 0.83 0.29 71.81 -24.27 -17.64 -4.77 0 0 87.27 -15.40 -16.24 -2.87 0 0 44.78 -4.46 -12.79 -8.65 1.01 -1.70 72.40 -20.74 -15.78 -4.54 0 0 80.31 -7.53 -8.92 -2.50 0 0 47.93 -2.94 -7.77 -7.69 0.66 -3.90 85.69 -30.71 -4.49 -3.21 0 0 73.39 -11.48 -8.29 -1.92 0 0 39.93 -4.93 -15.33 8.73 -0 0 33.29 -23.71 44.21 0 -46.66 0 0 50.67 0 0 -40.14 0 -6.21 -11.24 11.20 0 -8.88 14.22 0 0 0 -8.73 0 -0 -17.18 -15.04 -15.96 0 -46.66 0 0 46.08 0 0 -40.14 0 14.22 -26.51 0.88 0 -8.88 14.22 0 0 0 
-0.37 86.16 -0.05 -2.43 0.40 -36.58 0 7.24 0 -0.74 -1.03 -1.00 0 16.54 -0 -0.95 3.16 -2.85 0 34.21 -0 -0.83 26.20 1.26 0 6.29 0 -9.18 -13.96 43.39 4.06 26.61 -1.12 -6.95 -5.14 4.52 14.17 0 0 -64.60 37.71 2.55 26.12 0 0 -0 0 -85.19 27.71 0 0 -23.90 -3.19 -11.63 2.29 -0.46 1.83 60.55 59.81 -94.87 5.29 0 0 -31.62 1.78 13.52 3.01 0 0 -9.29 4.86 11.98 9.37 0.29 2.59 -14.84 3.00 -1.79 4.34 0 0 -17.05 2.95 12.80 2.16 0 0 -39.58 -1.85 3.38 9.47 0.83 0.29 -17.73 -8.55 1.13 4.77 0 0 -25.26 1.27 15.79 2.87 0 0 -42.85 -5.38 11.90 8.65 1.01 -1.70 -25.51 -10.38 2.28 4.54 0 0 -23.47 0.26 7.66 2.50 0 0 -24.24 -1.28 4.61 7.69 0.66 -3.90 -12.73 -8.19 -2.12 3.21 0 0 -51.14 -7.95 12.29 1.92 0 0 -72.20 -16.64 20.97 -4.06 26.61 -1.12 7.32 -5.00 -3.16 -14.17 0 0 53.06 3.17 44.79 -26.12 0 0 0 0 109.99 -27.71 0 0 -25.82 8.63 -7.04 -2.29 -0.46 1.83 -58.05 34.86 97.98 -5.29 0 0 3.13 -12.29 -11.73 -3.01 0 0 49.17 21.55 -13.56 -9.37 0.29 2.59 44.26 -16.28 -19.27 -4.34 0 0 39.43 1.04 -17.18 -2.16 0 0 32.42 -1.98 -6.38 -9.47 0.83 0.29 71.81 -24.27 -17.64 -4.77 0 0 87.27 -15.40 -16.24 -2.87 0 0 44.78 -4.46 -12.79 -8.65 1.01 -1.70 72.40 -20.74 -15.78 -4.54 0 0 80.31 -7.53 -8.92 -2.50 0 0 47.93 -2.94 -7.77 -7.69 0.66 -3.90 85.69 -30.71 -4.49 -3.21 0 0 73.39 -11.48 -8.29 -1.92 0 0 39.93 -4.93 -15.33 8.73 -0 0 33.23 -23.66 44.25 0 -46.66 0 0 50.43 0 0 -40.14 0 -6.19 -11.14 11.20 0 -8.88 14.22 0 0 0 -8.73 0 -0 -17.14 -15.01 -15.99 0 -46.66 0 0 45.89 0 0 -40.14 0 14.22 -26.40 0.88 0 -8.88 14.22 0 0 0 
-0.38 86.23 -0.03 -2.37 0.44 -36.59 0 7.24 0 -0.74 -1.06 -1.01 0 16.54 -0 -0.89 2.94 -2.87 0 34.21 -0 -0.83 26.24 1.26 0 6.29 0 -9.18 -13.86 43.37 4.06 26.61 -1.12 -6.80 -5.14 4.57 14.17 0 0 -64.86 37.75 2.68 26.12 0 0 -0 0 -85.21 27.71 0 0 -24.00 -3.29 -11.60 2.29 -0.46 1.83 60.55 59.81 -94.87 5.29 0 0 -31.62 1.78 13.52 3.01 0 0 -9.29 4.86 11.98 9.37 0.29 2.59 -14.84 3.00 -1.79 4.34 0 0 -17.05 2.95 12.80 2.16 0 0 -39.58 -1.85 3.38 9.47 0.83 0.29 -17.73 -8.64 1.11 4.77 0 0 -25.26 1.27 15.79 2.87 0 0 -42.85 -5.38 11.90 8.65 1.01 -1.70 -25.51 -10.38 2.28 4.54 0 0 -23.47 0.26 7.66 2.50 0 0 -24.24 -1.28 4.61 7.69 0.66 -3.90 -12.73 -8.19 -2.12 3.21 0 0 -51.14 -7.95 12.29 1.92 0 0 -72.20 -16.64 20.97 -4.06 26.61 -1.12 7.05 -4.99 -3.24 -14.17 0 0 53.18 3.35 44.74 -26.12 0 0 0 0 110.05 -27.71 0 0 -25.81 8.47 -7.14 -2.29 -0.46 1.83 -58.05 34.86 97.98 -5.29 0 0 3.13 -12.29 -11.73 -3.01 0 0 49.17 21.55 -13.56 -9.37 0.29 2.59 44.26 -16.28 -19.27 -4.34 0 0 39.43 1.04 -17.18 -2.16 0 0 32.42 -1.98 -6.38 -9.47 0.83 0.29 71.81 -24.27 -17.64 -4.77 0 0 87.27 -15.40 -16.24 -2.87 0 0 44.78 -4.46 -12.79 -8.65 1.01 -1.70 72.40 -20.74 -15.78 -4.54 0 0 80.31 -7.53 -8.92 -2.50 0 0 47.93 -2.94 -7.77 -7.69 0.66 -3.90 85.69 -30.71 -4.49 -3.21 0 0 73.39 -11.48 -8.29 -1.92 0 0 39.93 -4.93 -15.33 8.73 -0 0 33.16 -23.60 44.28 0 -46.66 0 0 50.20 0 0 -40.14 0 -6.17 -11.04 11.19 0 -8.88 14.22 0 0 0 -8.73 0 -0 -17.11 -14.98 -16.02 0 -46.66 0 0 45.69 0 0 -40.14 0 14.23 -26.29 0.88 0 -8.88 14.22 0 0 0 
-0.38 86.31 -0.01 -2.31 0.47 -36.60 0 7.24 0 -0.75 -1.09 -1.02 0 16.54 -0 -0.82 2.72 -2.90 0 34.21 -0 -0.82 26.29 1.26 0 6.29 0 -9.18 -13.77 43.34 4.06 26.61 -1.12 -6.65 -5.13 4.62 14.17 0 0 -65.15 37.77 2.83 26.12 0 0 -0 0 -85.24 27.71 0 0 -24.11 -3.36 -11.55 2.29 -0.46 1.83 60.55 59.81 -94.87 5.29 0 0 -31.62 1.78 13.52 3.01 0 0 -9.29 4.86 11.98 9.37 0.29 2.59 -14.84 3.00 -1.79 4.34 0 0 -17.05 2.95 12.80 2.16 0 0 -39.58 -1.85 3.38 9.47 0.83 0.29 -17.73 -8.72 1.10 4.77 0 0 -25.26 1.27 15.79 2.87 0 0 -42.85 -5.38 11.90 8.65 1.01 -1.70 -25.51 -10.38 2.28 4.54 0 0 -23.47 0.26 7.66 2.50 0 0 -24.24 -1.28 4.61 7.69 0.66 -3.90 -12.73 -8.19 -2.12 3.21 0 0 -51.14 -7.95 12.29 1.92 0 0 -72.20 -16.64 20.97 -4.06 26.61 -1.12 6.79 -4.98 -3.32 -14.17 0 0 53.32 3.50 44.66 -26.12 0 0 0 0 110.12 -27.71 0 0 -25.77 8.36 -7.23 -2.29 -0.46 1.83 -58.05 34.86 97.98 -5.29 0 0 3.13 -12.29 -11.73 -3.01 0 0 49.17 21.55 -13.56 -9.37 0.29 2.59 44.26 -16.28 -19.27 -4.34 0 0 39.43 1.04 -17.18 -2.16 0 0 32.42 -1.98 -6.38 -9.47 0.83 0.29 71.81 -24.27 -17.64 -4.77 0 0 87.27 -15.40 -16.24 -2.87 0 0 44.78 -4.46 -12.79 -8.65 1.01 -1.70 72.40 -20.74 -15.78 -4.54 0 0 80.31 -7.53 -8.92 -2.50 0 0 47.93 -2.94 -7.77 -7.69 0.66 -3.90 85.69 -30.71 -4.49 -3.21 0 0 73.39 -11.48 -8.29 -1.92 0 0 39.93 -4.93 -15.33 8.73 -0 0 33.10 -23.54 44.32 0 -46.66 0 0 49.96 0 0 -40.14 0 -6.15 -10.95 11.19 0 -8.88 14.22 0 0 0 -8.73 0 -0 -17.08 -14.96 -16.04 0 -46.66 0 0 45.50 0 0 -40.14 0 14.23 -26.19 0.89 0 -8.88 14.22 0 0 0 
-0.39 86.39 -0 -2.25 0.51 -36.61 0 7.24 0 -0.75 -1.12 -1.02 0 16.54 -0 -0.76 2.51 -2.92 0 34.21 -0 -0.82 26.33 1.26 0 6.29 0 -9.17 -13.68 43.31 4.06 26.61 -1.12 -6.52 -5.12 4.67 14.17 0 0 -65.43 37.78 2.98 26.12 0 0 -0 0 -85.27 27.71 0 0 -24.22 -3.44 -11.51 2.29 -0.46 1.83 60.55 59.81 -94.87 5.29 0 0 -31.62 1.78 13.52 3.01 0 0 -9.29 4.86 11.98 9.37 0.29 2.59 -14.84 3.00 -1.79 4.34 0 0 -17.05 2.95 12.80 2.16 0 0 -39.58 -1.85 3.38 9.47 0.83 0.29 -17.73 -8.81 1.08 4.77 0 0 -25.26 1.27 15.79 2.87 0 0 -42.85 -5.38 11.90 8.65 1.01 -1.70 -25.51 -10.38 2.28 4.54 0 0 -23.47 0.26 7.66 2.50 0 0 -24.24 -1.28 4.61 7.69 0.66 -3.90 -12.73 -8.19 -2.12 3.21 0 0 -51.14 -7.95 12.29 1.92 0 0 -72.20 -16.64 20.97 -4.06 26.61 -1.12 6.53 -4.98 -3.40 -14.17 0 0 53.48 3.63 44.58 -26.12 0 0 0 0 110.19 -27.71 0 0 -25.71 8.29 -7.31 -2.29 -0.46 1.83 -58.05 34.86 97.98 -5.29 0 0 3.13 -12.29 -11.73 -3.01 0 0 49.17 21.55 -13.56 -9.37 0.29 2.59 44.26 -16.28 -19.27 -4.34 0 0 39.43 1.04 -17.18 -2.16 0 0 32.42 -1.98 -6.38 -9.47 0.83 0.29 71.81 -24.27 -17.64 -4.77 0 0 87.27 -15.40 -16.24 -2.87 0 0 44.78 -4.46 -12.79 -8.65 1.01 -1.70 72.40 -20.74 -15.78 -4.54 0 0 80.31 -7.53 -8.92 -2.50 0 0 47.93 -2.94 -7.77 -7.69 0.66 -3.90 85.69 -30.71 -4.49 -3.21 0 0 73.39 -11.48 -8.29 -1.92 0 0 39.93 -4.93 -15.33 8.73 -0 0 33.03 -23.49 44.36 0 -46.66 0 0 49.73 0 0 -40.14 0 -6.13 -10.85 11.19 0 -8.88 14.22 0 0 0 -8.73 0 -0 -17.05 -14.93 -16.07 0 -46.66 0 0 45.32 0 0 -40.14 0 14.23 -26.08 0.89 0 -8.88 14.22 0 0 0 
-0.40 86.47 0.01 -2.19 0.54 -36.62 0 7.24 0 -0.76 -1.15 -1.03 0 16.54 -0 -0.70 2.29 -2.94 0 34.21 -0 -0.82 26.37 1.26 0 6.29 0 -9.17 -13.60 43.28 4.06 26.61 -1.12 -6.39 -5.12 4.72 14.17 0 0 -65.69 37.81 3.09 26.12 0 0 -0 0 -85.29 27.71 0 0 -24.32 -3.52 -11.48 2.29 -0.46 1.83 60.55 59.81 -94.87 5.29 0 0 -31.62 1.78 13.52 3.01 0 0 -9.29 4.86 11.98 9.37 0.29 2.59 -14.84 3.00 -1.79 4.34 0 0 -17.05 2.95 12.80 2.16 0 0 -39.58 -1.85 3.38 9.47 0.83 0.29 -17.73 -8.89 1.07 4.77 0 0 -25.26 1.27 15.79 2.87 0 0 -42.85 -5.38 11.90 8.65 1.01 -1.70 -25.51 -10.38 2.28 4.54 0 0 -23.47 0.26 7.66 2.50 0 0 -24.24 -1.28 4.61 7.69 0.66 -3.90 -12.73 -8.19 -2.12 3.21 0 0 -51.14 -7.95 12.29 1.92 0 0 -72.20 -16.64 20.97 -4.06 26.61 -1.12 6.29 -4.97 -3.48 -14.17 0 0 53.63 3.75 44.50 -26.12 0 0 0 0 110.26 -27.71 0 0 -25.64 8.23 -7.38 -2.29 -0.46 1.83 -58.05 34.86 97.98 -5.29 0 0 3.13 -12.29 -11.73 -3.01 0 0 49.17 21.55 -13.56 -9.37 0.29 2.59 44.26 -16.28 -19.27 -4.34 0 0 39.43 1.04 -17.18 -2.16 0 0 32.42 -1.98 -6.38 -9.47 0.83 0.29 71.81 -24.27 -17.64 -4.77 0 0 87.27 -15.40 -16.24 -2.87 0 0 44.78 -4.46 -12.79 -8.65 1.01 -1.70 72.40 -20.74 -15.78 -4.54 0 0 80.31 -7.53 -8.92 -2.50 0 0 47.93 -2.94 -7.77 -7.69 0.66 -3.90 85.69 -30.71 -4.49 -3.21 0 0 73.39 -11.48 -8.29 -1.92 0 0 39.93 -4.93 -15.33 8.73 -0 0 32.97 -23.43 44.39 0 -46.66 0 0 49.49 0 0 -40.14 0 -6.11 -10.76 11.18 0 -8.88 14.22 0 0 0 -8.73 0 -0 -17.02 -14.89 -16.10 0 -46.66 0 0 45.14 0 0 -40.14 0 14.23 -25.98 0.89 0 -8.88 14.22 0 0 0 
